/* XPM */
static char * awesome64_xpm[] = {
"64 64 2 1",
" 	c None",
".	c #535D6C",
"................................................................",
"................................................................",
"................................................................",
"................................................................",
"................................................................",
"................................................................",
"................................................................",
"................................................................",
"................................................................",
"................................................................",
"................................................................",
"................................................................",
"................................................................",
"................................................................",
"................................................................",
"................................................................",
"................................................................",
"................................................................",
"................................................................",
"................................................................",
"                                            ....................",
"                                            ....................",
"................................................................",
"................................................................",
"................................................................",
"................................................................",
"................................................................",
"................................................................",
"................................................................",
"................................................................",
"................................................................",
"................................................................",
"................................................................",
"................................................................",
"................................................................",
"................................................................",
"................................................................",
"................................................................",
"................................................................",
"................................................................",
"................................................................",
"................................................................",
"....................                        ....................",
"....................                        ....................",
"..........................................  ....................",
"..........................................  ....................",
"..........................................  ....................",
"..........................................  ....................",
"..........................................  ....................",
"..........................................  ....................",
"..........................................  ....................",
"..........................................  ....................",
"..........................................  ....................",
"..........................................  ....................",
"..........................................  ....................",
"..........................................  ....................",
"..........................................  ....................",
"..........................................  ....................",
"..........................................  ....................",
"..........................................  ....................",
"..........................................  ....................",
"..........................................  ....................",
"..........................................  ....................",
"..........................................  ...................."};
